<?xml version="1.0" encoding="iso-8859-1"?>
<!-- Uploaded to: SVG Repo, www.svgrepo.com, Generator: SVG Repo Mixer Tools -->
<svg height="800px" width="800px" version="1.1" id="Layer_1" xmlns="http://www.w3.org/2000/svg" xmlns:xlink="http://www.w3.org/1999/xlink" 
	 viewBox="0 0 512 512" xml:space="preserve">
<circle style="fill:#FF5B62;" cx="256" cy="256" r="256"/>
<ellipse style="fill:#F4F6F7;" cx="252.567" cy="359.009" rx="152.083" ry="39.992"/>
<path style="fill:#D7DEE0;" d="M404.65,358.694v50.544c0,21.914-68.093,39.678-152.088,39.678s-152.088-17.765-152.088-39.678
	v-50.544c0,21.914,68.093,39.678,152.088,39.678S404.65,380.609,404.65,358.694z"/>
<ellipse style="fill:#F4F6F7;" cx="252.567" cy="275.871" rx="152.083" ry="39.992"/>
<path style="fill:#D7DEE0;" d="M404.65,275.558v50.544c0,21.914-68.093,39.678-152.088,39.678s-152.088-17.765-152.088-39.678
	v-50.544c0,21.915,68.093,39.679,152.088,39.679S404.65,297.473,404.65,275.558z"/>
<ellipse style="fill:#F4F6F7;" cx="252.567" cy="192.734" rx="152.083" ry="39.992"/>
<path style="fill:#D7DEE0;" d="M404.65,192.422v50.542c0,21.915-68.093,39.679-152.088,39.679s-152.088-17.763-152.088-39.678
	v-50.542c0,21.914,68.093,39.678,152.088,39.678S404.65,214.336,404.65,192.422z"/>
<ellipse style="fill:#F4F6F7;" cx="252.567" cy="109.596" rx="152.083" ry="39.992"/>
<path style="fill:#D7DEE0;" d="M404.65,109.286v50.544c0,21.914-68.093,39.678-152.088,39.678s-152.088-17.764-152.088-39.678
	v-50.544c0,21.914,68.093,39.679,152.088,39.679S404.65,131.2,404.65,109.286z"/>
<g>
	<path style="fill:#C2CACC;" d="M399.59,169.945v12.752c-17.226,16.983-76.52,29.498-147.028,29.498s-129.801-12.517-147.028-29.498
		v-12.752c17.226,16.981,76.52,29.498,147.028,29.498S382.363,186.926,399.59,169.945z"/>
	<path style="fill:#C2CACC;" d="M399.59,253.147v12.752c-17.226,16.983-76.52,29.498-147.028,29.498S122.76,282.88,105.534,265.899
		v-12.752c17.226,16.981,76.52,29.498,147.028,29.498S382.363,270.127,399.59,253.147z"/>
	<path style="fill:#C2CACC;" d="M399.59,336.281v12.753c-17.226,16.981-76.52,29.498-147.028,29.498s-129.801-12.518-147.028-29.498
		v-12.753c17.226,16.983,76.52,29.498,147.028,29.498S382.363,353.263,399.59,336.281z"/>
</g>
<circle style="fill:#FF5B62;" cx="345.216" cy="167.782" r="8.443"/>
<circle style="fill:#21D0C3;" cx="321.432" cy="170.517" r="8.443"/>
<circle style="fill:#FF5B62;" cx="345.216" cy="250.072" r="8.443"/>
<circle style="fill:#21D0C3;" cx="321.432" cy="252.806" r="8.443"/>
<circle style="fill:#FF5B62;" cx="345.216" cy="332.351" r="8.442"/>
<circle style="fill:#21D0C3;" cx="321.432" cy="335.086" r="8.442"/>
<circle style="fill:#FF5B62;" cx="345.216" cy="414.64" r="8.442"/>
<circle style="fill:#21D0C3;" cx="321.432" cy="417.375" r="8.442"/>
<g>
	<path style="fill:#C2CACC;" d="M140.284,172.26c-1.587-0.731-2.28-2.612-1.549-4.199c0.731-1.587,2.612-2.279,4.199-1.549
		c1.96,0.907,10.161,4.361,23.139,7.1c7.44,1.571,16.419,2.901,26.629,3.372c1.745,0.074,3.097,1.55,3.021,3.294
		c-0.074,1.744-1.55,3.095-3.294,3.021c-10.622-0.492-19.939-1.868-27.644-3.495C151.136,176.924,142.384,173.23,140.284,172.26
		L140.284,172.26z"/>
	<path style="fill:#C2CACC;" d="M140.284,159.471c-1.587-0.731-2.28-2.612-1.549-4.199c0.731-1.587,2.612-2.28,4.199-1.549
		c1.96,0.906,10.161,4.36,23.139,7.1c7.44,1.571,16.419,2.901,26.629,3.371c1.745,0.074,3.097,1.55,3.021,3.294
		c-0.074,1.745-1.55,3.097-3.294,3.021c-10.622-0.49-19.939-1.868-27.644-3.495C151.136,164.133,142.384,160.441,140.284,159.471z"
		/>
	<path style="fill:#C2CACC;" d="M140.284,256.361c-1.587-0.731-2.28-2.612-1.549-4.199c0.731-1.587,2.612-2.28,4.199-1.549
		c1.96,0.906,10.161,4.361,23.139,7.1c7.44,1.571,16.419,2.901,26.629,3.371c1.745,0.076,3.097,1.551,3.021,3.295
		c-0.074,1.744-1.55,3.095-3.294,3.021c-10.622-0.491-19.939-1.869-27.644-3.495C151.136,261.025,142.384,257.332,140.284,256.361
		L140.284,256.361z"/>
	<path style="fill:#C2CACC;" d="M140.284,243.572c-1.587-0.731-2.28-2.612-1.549-4.199c0.731-1.587,2.612-2.28,4.199-1.549
		c1.96,0.906,10.161,4.36,23.139,7.1c7.44,1.57,16.419,2.901,26.629,3.371c1.745,0.074,3.097,1.55,3.021,3.294
		c-0.074,1.744-1.55,3.097-3.294,3.021c-10.622-0.491-19.939-1.868-27.644-3.495C151.136,248.235,142.384,244.542,140.284,243.572z"
		/>
	<path style="fill:#C2CACC;" d="M140.284,338.983c-1.587-0.731-2.28-2.612-1.549-4.199c0.731-1.587,2.612-2.28,4.199-1.549
		c1.96,0.906,10.161,4.361,23.139,7.1c7.44,1.571,16.419,2.901,26.629,3.371c1.745,0.076,3.097,1.551,3.021,3.295
		c-0.074,1.744-1.55,3.095-3.294,3.021c-10.622-0.491-19.939-1.869-27.644-3.495C151.136,343.646,142.384,339.953,140.284,338.983
		L140.284,338.983z"/>
	<path style="fill:#C2CACC;" d="M140.284,326.194c-1.587-0.731-2.28-2.612-1.549-4.199c0.731-1.588,2.612-2.28,4.199-1.549
		c1.96,0.906,10.161,4.36,23.139,7.1c7.44,1.57,16.419,2.901,26.629,3.371c1.745,0.074,3.097,1.55,3.021,3.294
		c-0.074,1.744-1.55,3.095-3.294,3.021c-10.622-0.491-19.939-1.868-27.644-3.495C151.136,330.857,142.384,327.164,140.284,326.194z"
		/>
	<path style="fill:#C2CACC;" d="M140.284,421.944c-1.587-0.731-2.28-2.612-1.549-4.199c0.731-1.587,2.612-2.28,4.199-1.549
		c1.96,0.906,10.161,4.36,23.139,7.1c7.44,1.571,16.419,2.901,26.629,3.371c1.745,0.074,3.097,1.55,3.021,3.294
		c-0.074,1.745-1.55,3.097-3.294,3.021c-10.622-0.49-19.939-1.868-27.644-3.495C151.136,426.607,142.384,422.914,140.284,421.944z"
		/>
	<path style="fill:#C2CACC;" d="M140.284,409.153c-1.587-0.731-2.28-2.612-1.549-4.199c0.731-1.587,2.612-2.279,4.199-1.549
		c1.96,0.907,10.161,4.361,23.139,7.1c7.44,1.571,16.419,2.901,26.629,3.372c1.745,0.074,3.097,1.55,3.021,3.294
		c-0.074,1.744-1.55,3.095-3.294,3.021c-10.622-0.492-19.939-1.868-27.644-3.495C151.136,413.818,142.384,410.123,140.284,409.153
		L140.284,409.153z"/>
</g>
<g>
	<path style="fill:#666666;" d="M334.498,348.084l15.089,15.089l-9.67,9.669l-15.089-15.087c1.638-1.567,3.269-3.158,4.891-4.781
		C331.341,351.351,332.931,349.721,334.498,348.084z"/>
	<path style="fill:#666666;" d="M195.233,218.488c37.296-37.296,97.771-37.296,135.068,0.001
		c37.296,37.296,37.294,97.77-0.001,135.065c-37.297,37.297-97.77,37.297-135.065,0.001
		C157.938,316.259,157.936,255.785,195.233,218.488L195.233,218.488z"/>
</g>
<path style="fill:#15BDB2;" d="M203.984,227.239c32.464-32.464,85.103-32.464,117.566,0s32.464,85.102,0,117.565
	c-32.464,32.466-85.103,32.466-117.566,0C171.519,312.341,171.519,259.704,203.984,227.239z"/>
<path style="fill:#666666;" d="M439.213,477.281l14.808-14.808c2.059-2.059,2.016-5.471-0.093-7.582l-90.619-90.619
	c-2.11-2.11-5.533-2.143-7.583-0.093l-14.807,14.806c-2.048,2.049-2.005,5.481,0.096,7.582l90.619,90.619
	C433.732,479.286,437.155,479.339,439.213,477.281L439.213,477.281z"/>
<path style="fill:#FAD24D;" d="M366.328,367.291l-6.593-6.593c-2.109-2.108-5.525-2.151-7.582-0.094l-14.807,14.809
	c-2.056,2.055-2.013,5.474,0.093,7.58l6.593,6.593L366.328,367.291L366.328,367.291z"/>
<path style="fill:#EDB937;" d="M366.328,367.291l-6.593-6.593c-2.019-2.018-5.235-2.143-7.312-0.343l10.421,10.421L366.328,367.291
	L366.328,367.291z M337.095,375.684c-1.796,2.075-1.673,5.293,0.345,7.311l6.591,6.591l3.483-3.482L337.095,375.684z"/>
<g>
	<path style="fill:#21D0C3;" d="M314.991,349.414c-31.246,27.658-79.789,25.815-110.61-5.006s-32.664-79.364-5.006-110.611
		c-2.341,3.862-4.325,7.887-5.955,12.027c-14.227,29.865-8.504,67.275,16.882,92.663c25.387,25.387,62.798,31.109,92.662,16.881
		C307.104,353.738,311.128,351.755,314.991,349.414z"/>
	<path style="fill:#21D0C3;" d="M325.206,331.156c24.393-27.732,21.614-71.834-7.063-100.511s-72.78-31.458-100.511-7.064
		c0.757-0.445,1.519-0.876,2.291-1.29c27.813-20.077,68.562-16.066,95.6,10.974c27.039,27.039,31.05,67.79,10.975,95.602
		C326.083,329.635,325.652,330.4,325.206,331.156L325.206,331.156z"/>
</g>
</svg>