<svg width="30" height="30" xmlns="http://www.w3.org/2000/svg" xmlns:xlink="http://www.w3.org/1999/xlink">
  <symbol id="a">
    <g fill="none" fill-rule="evenodd" stroke-linejoin="round" stroke-width="1.5">
      <path d="M13 18s-1.5-.5-1.5-3c-.826 0-.826-2 0-2 0-.335-1.5-4 1-3.5.5-2 6-2 6.5 0 .347 1.388-.5 3.254-.5 3.5.826 0 .826 2 0 2 0 2.5-1.5 3-1.5 3v2.5c2.477.929 4.93 1.697 6.186 2.575A11.464 11.464 0 0026.5 15c0-6.352-5.148-11.5-11.5-11.5S3.5 8.648 3.5 15c0 3.153 1.27 6.009 3.325 8.087 1.33-.92 3.952-1.746 6.175-2.587V18z"/>
      <path d="M6.825 23.087A11.465 11.465 0 0015 26.5c3.203 0 6.1-1.311 8.186-3.425"/>
    </g>
  </symbol>
  <use x="0" xlink:href="#a" stroke="#fff"/>
</svg>
